# xmcd
#
# Track frame offsets: 
#        150
#        16413
#        31115
#        42195
#        57573
#        72303
#        84062
#        104158
#        114911
#        124742
#        138771
#        153236
#        169731
#        182601
#        197329
#
# Disc length: 2814 seconds
#
# Revision: 0
# Processed by: cddbd v1.5.2PL0 Copyright (c) Steve Scherf et al.
# Submitted via: ExactAudioCopy v0.95b4
#
DISCID=ba0afc0f
DTITLE=Various Artist - Superstars of Country - Good Ol' Songs  CD 1
DYEAR=1900
DGENRE=Country
TTITLE0=Alabama - The Closer You Get
TTITLE1=Ronnie Milsap - There's No Gettin' Over Me
TTITLE2=Charley Pride - Is Anybody Goin' to San Antone
TTITLE3=Tanya Tucker - Delta Dawn
TTITLE4=Bellamy Brothers - Let Your Love Flow
TTITLE5=Crystal Gayle - Don't It Make My Brown Eyes Blue
TTITLE6=Elvis Presley - Suspicious Minds
TTITLE7=Jerry Reed - Amos Moses
TTITLE8=Waylon Jennings - Dukes of Hazzard Theme
TTITLE9=Dolly Parton - Coat of Many Colors
TTITLE10=Earl Thomas Conley - Holding Her and Loving You
TTITLE11=George Jones - A Good Year for the Roses
TTITLE12=Porter Wagoner - The Carroll County Accident
TTITLE13=Roseanne Cash - Seven Year Ache
TTITLE14=Dolly Parton - I Will Always Love You
EXTD=
EXTT0=
EXTT1=
EXTT2=
EXTT3=
EXTT4=
EXTT5=
EXTT6=
EXTT7=
EXTT8=
EXTT9=
EXTT10=
EXTT11=
EXTT12=
EXTT13=
EXTT14=
PLAYORDER=
